<svg width="1008" height="319" viewBox="0 0 1008 319" fill="none" xmlns="http://www.w3.org/2000/svg">
<path d="M24.6372 160.021C24.9243 78.057 80.4544 0 162.419 0H847.37C930.275 0 988.787 76.337 988.636 159.242V159.242C988.484 242.366 929.824 319 846.701 319H161.293C79.6757 319 24.3512 241.637 24.6372 160.021V160.021Z" fill="#4D4D4D"/>
<path d="M375.601 127.68V181H364.651V127.68H375.601ZM392.007 127.68V136.286H348.501V127.68H392.007ZM404.27 127.68H424.155C428.232 127.68 431.735 128.29 434.665 129.511C437.619 130.731 439.89 132.538 441.477 134.931C443.063 137.323 443.857 140.265 443.857 143.756C443.857 146.613 443.369 149.066 442.392 151.117C441.44 153.144 440.085 154.84 438.327 156.208C436.594 157.55 434.555 158.625 432.211 159.43L428.732 161.261H411.447L411.374 152.692H424.228C426.157 152.692 427.756 152.35 429.025 151.667C430.295 150.983 431.247 150.031 431.882 148.81C432.541 147.589 432.871 146.173 432.871 144.562C432.871 142.853 432.553 141.376 431.918 140.131C431.284 138.886 430.319 137.934 429.025 137.274C427.731 136.615 426.108 136.286 424.155 136.286H415.256V181H404.27V127.68ZM434.079 181L421.921 157.233L433.53 157.16L445.834 180.487V181H434.079ZM463.883 127.68L475.016 151.996L486.148 127.68H498.124L480.582 161.591V181H469.449V161.591L451.871 127.68H463.883ZM538.688 127.68H547.99L561.686 166.828L575.382 127.68H584.684L565.421 181H557.951L538.688 127.68ZM533.671 127.68H542.936L544.621 165.839V181H533.671V127.68ZM580.436 127.68H589.738V181H578.751V165.839L580.436 127.68ZM641.148 172.431V181H612.767V172.431H641.148ZM616.355 127.68V181H605.369V127.68H616.355ZM637.449 149.396V157.746H612.767V149.396H637.449ZM641.111 127.68V136.286H612.767V127.68H641.111Z" fill="white"/>
</svg>