<svg width="256" height="256" viewBox="0 0 256 256" fill="none" xmlns="http://www.w3.org/2000/svg">
<path d="M127.98 33.66C105.18 33.08 86.88 42.96 86.88 42.96C86.88 42.96 63.64 8.22002 30.84 32.82C-2.94001 58.16 28.86 94.48 28.86 94.48C28.86 94.48 5.81999 122.72 7.75999 158.68C9.83999 197.24 30.28 242.72 130.52 241.04C230.76 239.36 248.16 195.56 247.94 157.56C247.72 120.96 230.48 99.56 230.48 99.56C230.48 99.56 261.74 65.5 235.54 38.74C209.34 11.98 179.5 48.04 179.5 48.04C179.5 48.04 160.92 34.5 127.98 33.66Z" fill="#4D4D4D"/>
<path d="M126.94 41.02C108.04 41.02 84.9 44.92 53.66 75.32C22.42 105.72 7.48 141.5 16.78 176.42C26.08 211.34 54.22 235.26 130.24 234.42C206.26 233.58 231.52 211.1 239.76 172.48C242.84 158.04 241.72 133.02 229.06 109.42C212.46 78.44 175.14 41.02 126.94 41.02Z" fill="white"/>
<path d="M107.06 99.74C91.52 90.26 75.34 100.3 63.14 116.82C52.5 131.22 41.7 135.94 40.8 150.98C40.04 163.56 49.44 181.58 68.96 181.58C86.8 181.58 90.74 164.68 99 153.24C107.24 141.78 130.3 113.92 107.06 99.74ZM144.98 103.12C134.86 112.32 136.9 127.52 144.42 137.1C151.94 146.68 156.6 152.02 159.82 157.94C164.04 165.72 179.04 194.56 203.18 175.58C227.76 156.24 209.24 132.64 203.56 126.78C201.34 124.5 181.32 103.5 177.46 100.32C172.48 96.18 159.42 89.98 144.98 103.12Z" fill="#4D4D4D"/>
<path d="M187.2 134.08C187.84 144.06 184.38 152.66 175.56 153.42C166.98 154.14 159.24 146.6 157.72 136.72C156.22 126.84 160.92 118.7 170.3 118.32C178.92 117.98 186.46 122.44 187.2 134.08ZM94.1 146.28C89.38 153.3 79.24 154.88 71.76 149.28C66.5 145.34 65.32 134.02 70.08 125.82C75.1 117.16 85.32 115.94 92.94 121.34C98.98 125.64 100.68 136.52 94.1 146.28Z" fill="#040301"/>
<path d="M162.62 126.96C160.48 132.16 161.86 138.98 165.82 138.78C170.88 138.54 169.2 134.28 170.88 132.22C172.56 130.16 175.58 125.84 172.38 123.4C168.36 120.3 163.94 123.76 162.62 126.96ZM74.4 125.82C70.86 131.42 71.62 136.3 73.64 138.02C76.74 140.64 80.5 136.98 82.94 132.48C85.38 127.98 88.48 124.12 84.72 121.32C82.06 119.34 76.64 122.26 74.4 125.82Z" fill="#E0E0E0"/>
<path d="M127.34 162.8C116.08 162.94 102.76 170.5 102.56 174.26C102.38 178.02 108.2 182.34 112.14 185.34C115.08 187.58 121.52 191.16 120.96 193.04C120.4 194.92 116.06 197.02 111.38 197.54C105.18 198.24 97.04 192.76 95.04 191.34C92.64 189.66 87.16 192.04 89.7 196.98C92.22 201.88 97.12 205.1 102.38 206.42C108.06 207.84 111.2 207.5 111.2 207.5C111.2 207.5 116.68 215.3 126.96 216.14C138.6 217.08 144.22 206.76 144.22 206.76C144.22 206.76 151.28 207.86 155.86 206.2C162.06 203.94 164.44 199.96 166 196.82C167.8 193.16 165.34 187.98 159.44 191.76C154.74 194.76 152.5 198.14 143.2 197.72C137.44 197.46 135.04 193.82 135.04 192.32C135.04 190.82 141.98 186.68 146.12 183.68C150.28 180.64 153.44 177.3 153.62 174.48C153.8 171.62 142.16 162.62 127.34 162.8Z" fill="#030200"/>
<path d="M127.98 198.8C127.98 198.8 125.26 202.22 124.14 202.98C123.02 203.74 119.26 205.84 119.26 205.84C119.26 205.84 122.14 209.06 125.88 209.5C133.06 210.34 136.02 206.26 136.02 206.26C136.02 206.26 134.38 204.94 132.5 203.58C130.78 202.34 127.98 198.8 127.98 198.8Z" fill="#FDA4A5"/>
</svg>